<svg id="Layer_3" enable-background="new 0 0 64 64" height="512" viewBox="0 0 64 64" width="512" xmlns="http://www.w3.org/2000/svg"><path d="m42.519 49 3.141 3.926-3.046 3.046-1.387-6.933c.256-.022.512-.039.773-.039zm6.4 0-1.919 2.399-1.919-2.399zm2.562 0h.519c.261 0 .517.017.772.039l-1.387 6.933-3.046-3.046zm4.519-8h-.059c.037-.329.059-.662.059-1v-3c1.103 0 2 .897 2 2s-.897 2-2 2zm-18-10c0-3.309 2.691-6 6-6h6c3.309 0 6 2.691 6 6v4h-1-3c-1.103 0-2-.897-2-2v-3-1h-2v1c0 2.757-2.243 5-5 5h-4-1zm0 10c-1.103 0-2-.897-2-2s.897-2 2-2v3c0 .338.022.671.059 1zm2-1v-3h3c2.124 0 4.027-.955 5.312-2.454.606 1.44 2.03 2.454 3.688 2.454h2v3c0 3.859-3.14 7-7 7s-7-3.141-7-7zm21 21h-28v-3c0-4.009 2.637-7.412 6.266-8.572l1.754 8.769c.072.361.338.654.691.761.095.028.192.042.289.042.261 0 .517-.103.707-.293l4.293-4.293 4.293 4.293c.19.19.446.293.707.293.097 0 .194-.014.29-.043.353-.106.619-.399.691-.761l1.754-8.769c3.628 1.161 6.265 4.564 6.265 8.573z"/><path d="m12.519 27 3.141 3.926-3.046 3.046-1.387-6.933c.256-.022.512-.039.773-.039zm6.4 0-1.919 2.399-1.919-2.399zm2.562 0h.519c.261 0 .517.017.772.039l-1.387 6.933-3.046-3.046zm4.519-8h-.059c.037-.329.059-.662.059-1v-3c1.103 0 2 .897 2 2s-.897 2-2 2zm-18-10c0-3.309 2.691-6 6-6h6c3.309 0 6 2.691 6 6v4h-1-3c-1.103 0-2-.897-2-2v-3-1h-2v1c0 2.757-2.243 5-5 5h-4-1zm0 10c-1.103 0-2-.897-2-2s.897-2 2-2v3c0 .338.022.671.059 1zm2-1v-3h3c2.124 0 4.027-.955 5.312-2.454.606 1.44 2.03 2.454 3.688 2.454h2v3c0 3.859-3.14 7-7 7s-7-3.141-7-7zm21 21h-28v-3c0-4.009 2.637-7.412 6.266-8.572l1.754 8.769c.072.361.338.654.691.761.095.028.192.042.289.042.261 0 .517-.103.707-.293l4.293-4.293 4.293 4.293c.19.19.446.293.707.293.097 0 .194-.014.29-.043.353-.106.619-.399.691-.761l1.754-8.769c3.628 1.161 6.265 4.564 6.265 8.573z"/><path d="m13 51c0-.553-.448-1-1-1h-1.586l4.586-4.586 4.586 4.586h-1.586c-.552 0-1 .447-1 1 0 4.155 2.123 7.824 5.341 9.979-5.208-.341-9.341-4.686-9.341-9.979z"/></svg>