<svg xmlns="http://www.w3.org/2000/svg" height="875pt" version="1.1" viewBox="0 0 875 875" width="875pt">
<g id="surface1">
<path d="M 359.105469 125 L 232.414062 125 C 226.679688 146.996094 209.496094 164.179688 187.5 169.914062 L 187.5 298.835938 C 209.496094 304.570312 226.679688 321.753906 232.414062 343.75 L 359.105469 343.75 C 328.914062 315.4375 312.007812 275.757812 312.5 234.375 C 312.007812 192.992188 328.914062 153.3125 359.105469 125 Z M 265.625 250 L 234.375 250 L 234.375 218.75 L 265.625 218.75 Z M 265.625 250 " style=" stroke:none;fill-rule:nonzero;fill:rgb(0%,0%,0%);fill-opacity:1;" />
<path d="M 642.585938 125 L 515.894531 125 C 546.085938 153.3125 562.992188 192.992188 562.5 234.375 C 562.992188 275.757812 546.085938 315.4375 515.894531 343.75 L 642.585938 343.75 C 648.320312 321.753906 665.503906 304.570312 687.5 298.835938 L 687.5 169.914062 C 665.503906 164.179688 648.320312 146.996094 642.585938 125 Z M 640.625 250 L 609.375 250 L 609.375 218.75 L 640.625 218.75 Z M 640.625 250 " style=" stroke:none;fill-rule:nonzero;fill:rgb(0%,0%,0%);fill-opacity:1;" />
<path d="M 750 218.75 L 750 62.5 L 125 62.5 L 125 406.25 L 750 406.25 Z M 718.75 312.5 C 718.75 321.132812 711.757812 328.125 703.125 328.125 C 685.863281 328.125 671.875 342.113281 671.875 359.375 C 671.875 368.007812 664.882812 375 656.25 375 L 218.75 375 C 210.117188 375 203.125 368.007812 203.125 359.375 C 203.125 342.113281 189.136719 328.125 171.875 328.125 C 163.242188 328.125 156.25 321.132812 156.25 312.5 L 156.25 156.25 C 156.25 147.617188 163.242188 140.625 171.875 140.625 C 189.136719 140.625 203.125 126.636719 203.125 109.375 C 203.125 100.742188 210.117188 93.75 218.75 93.75 L 656.25 93.75 C 664.882812 93.75 671.875 100.742188 671.875 109.375 C 671.875 126.636719 685.863281 140.625 703.125 140.625 C 711.757812 140.625 718.75 147.617188 718.75 156.25 Z M 718.75 312.5 " style=" stroke:none;fill-rule:nonzero;fill:rgb(0%,0%,0%);fill-opacity:1;" />
<path d="M 62.5 93.75 C 62.5 111.011719 76.488281 125 93.75 125 L 93.75 62.5 C 76.488281 62.5 62.5 76.488281 62.5 93.75 Z M 62.5 93.75 " style=" stroke:none;fill-rule:nonzero;fill:rgb(0%,0%,0%);fill-opacity:1;" />
<path d="M 125 437.5 L 750 437.5 L 750 468.75 L 125 468.75 Z M 125 437.5 " style=" stroke:none;fill-rule:nonzero;fill:rgb(0%,0%,0%);fill-opacity:1;" />
<path d="M 531.25 234.375 C 531.25 173.964844 489.265625 125 437.5 125 C 385.734375 125 343.75 173.964844 343.75 234.375 C 343.75 294.785156 385.734375 343.75 437.5 343.75 C 489.265625 343.75 531.25 294.785156 531.25 234.375 Z M 531.25 234.375 " style=" stroke:none;fill-rule:nonzero;fill:rgb(0%,0%,0%);fill-opacity:1;" />
<path d="M 679.140625 562.5 L 640.625 562.5 L 640.625 620.265625 Z M 679.140625 562.5 " style=" stroke:none;fill-rule:nonzero;fill:rgb(0%,0%,0%);fill-opacity:1;" />
<path d="M 748.835938 567.53125 C 734.65625 558.984375 716.253906 563.117188 707.078125 576.90625 L 638 680.539062 C 635.101562 684.882812 630.226562 687.5 625 687.5 L 562.5 687.5 C 502.125 687.570312 453.195312 736.5 453.125 796.875 L 421.875 796.875 C 421.96875 719.242188 484.867188 656.34375 562.5 656.25 L 609.375 656.25 L 609.375 562.5 L 546.875 562.5 L 546.875 625 L 515.625 625 L 515.625 562.5 L 453.125 562.5 L 453.125 625 L 421.875 625 L 421.875 562.5 L 359.375 562.5 L 359.375 625 L 328.125 625 L 328.125 562.5 L 265.625 562.5 L 265.625 796.875 C 265.679688 840 300.625 874.945312 343.75 875 L 538.613281 875 C 576.992188 874.875 612.523438 854.734375 632.363281 821.875 L 759.453125 610.046875 C 763.695312 603 764.953125 594.550781 762.949219 586.570312 C 760.957031 578.585938 755.867188 571.722656 748.808594 567.5 Z M 748.835938 567.53125 " style=" stroke:none;fill-rule:nonzero;fill:rgb(0%,0%,0%);fill-opacity:1;" />
<path d="M 125 500 L 750 500 L 750 531.25 L 125 531.25 Z M 125 500 " style=" stroke:none;fill-rule:nonzero;fill:rgb(0%,0%,0%);fill-opacity:1;" />
<path d="M 0 0 L 0 187.5 L 93.75 187.5 L 93.75 156.25 C 59.234375 156.25 31.25 128.265625 31.25 93.75 C 31.25 59.234375 59.234375 31.25 93.75 31.25 L 781.25 31.25 C 815.765625 31.25 843.75 59.234375 843.75 93.75 C 843.75 128.265625 815.765625 156.25 781.25 156.25 L 781.25 187.5 L 875 187.5 L 875 0 Z M 0 0 " style=" stroke:none;fill-rule:nonzero;fill:rgb(0%,0%,0%);fill-opacity:1;" />
<path d="M 781.25 62.5 L 781.25 125 C 798.511719 125 812.5 111.011719 812.5 93.75 C 812.5 76.488281 798.511719 62.5 781.25 62.5 Z M 781.25 62.5 " style=" stroke:none;fill-rule:nonzero;fill:rgb(0%,0%,0%);fill-opacity:1;" />
<path d="M 31.25 546.875 L 0 546.875 C 0.0703125 607.25 49 656.179688 109.375 656.25 L 109.375 625 C 66.25 624.945312 31.304688 590 31.25 546.875 Z M 31.25 546.875 " style=" stroke:none;fill-rule:nonzero;fill:rgb(0%,0%,0%);fill-opacity:1;" />
</g>
</svg>